<svg width="712" height="218" viewBox="0 0 712 218" fill="none" xmlns="http://www.w3.org/2000/svg">
<mask id="mask0" mask-type="alpha" maskUnits="userSpaceOnUse" x="0" y="0" width="712" height="218">
<rect width="712" height="218" rx="4" fill="#F08B1D"/>
</mask>
<g mask="url(#mask0)">
<path d="M783.797 -148.793L634.984 -120.389L584.988 23.1962L683.759 138.385L832.571 109.981L882.613 -33.6129L783.797 -148.793Z" fill="#F08B1D"/>
<path d="M500.752 2.00009C499.356 0.372372 497.195 -0.38279 495.087 0.0198218L-138.378 120.967C-140.487 121.369 -142.223 122.869 -142.929 124.899L-191.194 263.57C-191.897 265.59 -191.475 267.828 -190.086 269.449L-94.7026 380.693C-93.3063 382.322 -91.1453 383.077 -89.0361 382.675L544.428 261.728C546.537 261.325 548.273 259.826 548.979 257.797L597.288 119.117C597.991 117.097 597.569 114.857 596.179 113.236L500.752 2.00009Z" fill="#FAFAFA"/>
</g>
<g clip-path="url(#clip0)">
<path d="M242.111 95.7164L242.114 131.116L211.759 112.092L242.111 95.7164Z" fill="#FFBE85"/>
<path d="M273.79 109.711L243.438 93.3355C243.032 93.1148 242.575 92.9991 242.111 92.9991C241.647 92.9991 241.191 93.1148 240.784 93.3355L210.432 109.711C210 109.945 209.639 110.288 209.387 110.706C209.135 111.124 209.001 111.6 209 112.086V150.134C209 150.623 209.135 151.104 209.389 151.525C209.644 151.945 210.01 152.291 210.447 152.523L240.8 168.673C241.202 168.888 241.653 169 242.111 169C242.569 169 243.02 168.888 243.423 168.673L273.775 152.523C274.213 152.291 274.578 151.945 274.833 151.525C275.088 151.104 275.223 150.623 275.223 150.134V112.095C275.223 111.608 275.09 111.129 274.838 110.71C274.586 110.29 274.224 109.945 273.79 109.711ZM239.352 100.303V126.072L217.166 112.273L239.352 100.303ZM269.704 148.516L242.111 163.199L214.519 148.516V117.047L240.64 133.295C241.057 133.558 241.539 133.705 242.034 133.721C242.529 133.738 243.02 133.622 243.454 133.388C243.889 133.153 244.251 132.807 244.503 132.387C244.755 131.967 244.887 131.488 244.886 131V100.303L257.295 107.002L269.704 113.701V148.516Z" fill="#EF8A1D"/>
<path d="M295.358 163.974V125.624H301.256L314 146.057L326.967 125.624H332.531V163.974H326.521V148.24C326.521 145.793 326.567 143.548 326.66 141.503C326.752 139.459 326.892 137.468 327.079 135.53L315.671 152.969H311.998L300.81 135.599C300.997 137.427 301.137 139.354 301.229 141.379C301.322 143.403 301.368 145.695 301.368 148.254V163.989L295.358 163.974Z" fill="#F08B1D"/>
<path d="M355.127 164.523C352.444 164.567 349.799 163.894 347.473 162.576C345.252 161.304 343.417 159.469 342.16 157.262C340.833 154.909 340.161 152.254 340.212 149.564C340.161 146.874 340.833 144.22 342.16 141.869C343.418 139.661 345.252 137.826 347.473 136.552C349.806 135.276 352.43 134.607 355.098 134.607C357.766 134.607 360.391 135.276 362.723 136.552C364.945 137.826 366.779 139.661 368.037 141.869C369.363 144.22 370.035 146.874 369.985 149.564C370.036 152.254 369.364 154.909 368.037 157.262C366.78 159.469 364.945 161.304 362.723 162.576C360.417 163.889 357.791 164.562 355.127 164.523ZM355.127 159.372C356.779 159.399 358.403 158.951 359.801 158.084C361.177 157.221 362.293 156.01 363.031 154.578C363.826 153.026 364.208 151.301 364.144 149.564C364.212 147.809 363.829 146.066 363.031 144.496C362.297 143.069 361.18 141.866 359.801 141.02C358.381 140.189 356.76 139.753 355.108 139.758C353.457 139.763 351.838 140.208 350.423 141.046C349.034 141.902 347.909 143.114 347.169 144.552C346.373 146.103 345.99 147.827 346.056 149.564C345.99 151.301 346.373 153.026 347.169 154.578C347.912 156.017 349.04 157.229 350.432 158.084C351.839 158.947 353.469 159.395 355.127 159.372Z" fill="#F08B1D"/>
<path d="M388.404 164.523C385.88 164.563 383.398 163.887 381.254 162.576C379.146 161.268 377.427 159.435 376.272 157.262C375.016 154.887 374.385 152.24 374.436 149.564C374.385 146.891 375.007 144.248 376.245 141.869C377.38 139.698 379.079 137.863 381.17 136.552C383.286 135.245 385.741 134.57 388.238 134.607C390.134 134.601 392.008 135.012 393.721 135.812C395.296 136.511 396.707 137.521 397.867 138.781V123.433H403.597V163.974H397.867V160.028C396.979 161.271 395.662 162.331 393.917 163.208C392.213 164.074 390.322 164.525 388.404 164.523ZM389.185 159.645C390.825 159.675 392.435 159.217 393.805 158.33C395.158 157.434 396.243 156.198 396.947 154.75C397.701 153.125 398.09 151.36 398.09 149.574C398.09 147.788 397.701 146.023 396.947 144.398C396.246 142.943 395.161 141.699 393.805 140.797C392.422 139.938 390.82 139.482 389.185 139.482C387.55 139.482 385.948 139.938 384.565 140.797C383.21 141.695 382.123 142.934 381.42 144.386C380.669 146.011 380.28 147.776 380.28 149.562C380.28 151.348 380.669 153.113 381.42 154.738C382.123 156.19 383.21 157.43 384.565 158.327C385.935 159.215 387.546 159.674 389.185 159.645Z" fill="#F08B1D"/>
<path d="M425.134 164.523C422.131 164.523 419.469 163.893 417.149 162.632C414.887 161.426 413.001 159.636 411.694 157.455C410.35 155.158 409.667 152.543 409.719 149.893C409.719 146.863 410.359 144.206 411.64 141.922C412.87 139.69 414.699 137.833 416.926 136.552C419.273 135.233 421.931 134.547 424.634 134.563C427.01 134.56 429.343 135.19 431.386 136.385C433.429 137.581 435.105 139.298 436.238 141.355C437.408 143.431 437.957 145.818 437.884 148.516L437.83 150.926H415.451C415.787 153.521 416.873 155.575 418.708 157.089C420.544 158.603 422.872 159.361 425.692 159.363C427.071 159.376 428.439 159.134 429.727 158.651C430.97 158.176 432.315 157.318 433.762 156.077L436.654 160.094C435.145 161.494 433.367 162.583 431.425 163.297C429.426 164.094 427.291 164.51 425.134 164.523ZM424.634 139.758C419.626 139.758 416.639 141.986 415.674 146.443H432.037V146.058C431.939 144.89 431.515 143.773 430.813 142.828C430.104 141.87 429.173 141.093 428.099 140.559C427.025 140.026 425.837 139.751 424.634 139.758Z" fill="#F08B1D"/>
<path d="M444.217 163.974V123.433H449.947V163.974H444.217Z" fill="#F08B1D"/>
<path d="M471.158 164.523C468.155 164.523 465.493 163.893 463.173 162.632C460.911 161.426 459.025 159.636 457.718 157.455C456.374 155.158 455.691 152.544 455.742 149.893C455.742 146.863 456.383 144.206 457.663 141.922C458.893 139.69 460.722 137.832 462.95 136.552C465.296 135.232 467.955 134.546 470.658 134.563C473.034 134.56 475.367 135.19 477.41 136.385C479.453 137.581 481.129 139.298 482.262 141.355C483.436 143.431 483.983 145.818 483.902 148.516L483.848 150.926H461.475C461.809 153.521 462.895 155.575 464.732 157.089C466.57 158.603 468.898 159.361 471.716 159.363C473.094 159.376 474.463 159.134 475.751 158.651C476.994 158.176 478.338 157.318 479.786 156.077L482.678 160.094C481.169 161.495 479.39 162.584 477.446 163.297C475.448 164.094 473.314 164.51 471.158 164.523ZM470.658 139.758C465.65 139.758 462.666 141.984 461.707 146.438H478.067V146.052C477.971 144.884 477.548 143.766 476.846 142.822C476.145 141.877 475.23 141.108 474.174 140.574C473.087 140.025 471.88 139.744 470.658 139.758Z" fill="#F08B1D"/>
<path d="M490.135 163.974V135.21H495.922V140.634C496.779 138.917 498.062 137.442 499.653 136.344C501.146 135.235 502.96 134.626 504.83 134.607C505.438 134.605 506.044 134.661 506.64 134.773C507.107 134.852 507.564 134.98 508.003 135.156L506.495 141.293C506.017 141.099 505.524 140.943 505.02 140.827C504.501 140.701 503.969 140.636 503.434 140.634C502.131 140.625 500.851 140.967 499.731 141.622C498.603 142.275 497.657 143.193 496.978 144.294C496.271 145.431 495.904 146.741 495.919 148.073V163.962L490.135 163.974Z" fill="#F08B1D"/>
<path d="M295.617 108.889V98.3438H297.834V105.303C298.675 103.833 300.264 103.005 302.131 103.005C305.146 103.005 307.993 105.142 307.993 108.913C307.993 112.475 305.424 114.957 301.757 114.957C298.186 114.969 295.617 112.594 295.617 108.889ZM305.75 108.981C305.75 106.683 304.163 105.026 301.781 105.026C299.399 105.026 297.834 106.683 297.834 108.981C297.834 111.279 299.423 112.935 301.781 112.935C304.139 112.935 305.75 111.279 305.75 108.981Z" fill="#595959"/>
<path d="M310.234 103.302H312.45V114.672H310.234V103.302Z" fill="#595959"/>
<path d="M314.848 112.867L322.272 105.258H315.207V103.302H325.245V105.083L317.821 112.704H325.481V114.672H314.848V112.867Z" fill="#595959"/>
<path d="M326.88 109.073C326.88 105.51 329.449 103.005 333.116 103.005C336.735 103.005 339.256 105.442 339.256 109.073V114.672H337.226V112.175C336.454 114.016 334.751 114.969 332.742 114.969C329.73 114.969 326.88 112.819 326.88 109.073ZM337.061 108.981C337.061 106.683 335.474 105.026 333.092 105.026C330.71 105.026 329.124 106.683 329.124 108.981C329.124 111.279 330.71 112.935 333.092 112.935C335.474 112.935 337.061 111.279 337.061 108.981Z" fill="#595959"/>
<path d="M341.497 116.014H343.761C344.301 117.326 345.655 117.899 347.335 117.899C349.693 117.899 351.255 116.797 351.255 113.832V112.519C350.462 114.004 348.843 114.865 346.913 114.865C343.924 114.865 341.074 112.843 341.074 108.981C341.074 105.534 343.644 103.005 347.286 103.005C350.929 103.005 353.447 105.418 353.447 109.073V113.74C353.447 118.107 350.733 119.808 347.329 119.808C344.509 119.808 342.29 118.635 341.497 116.014ZM351.258 108.981C351.258 106.683 349.669 105.026 347.289 105.026C344.91 105.026 343.318 106.683 343.318 108.981C343.318 111.279 344.907 112.819 347.289 112.819C349.672 112.819 351.258 111.279 351.258 108.981Z" fill="#595959"/>
<path d="M356.161 103.302H358.378V114.672H356.161V103.302Z" fill="#595959"/>
</g>
<defs>
<clipPath id="clip0">
<rect width="299" height="76" fill="white" transform="translate(209 93)"/>
</clipPath>
</defs>
</svg>
